<svg width="40" height="40" viewBox="0 0 24 24" fill="none" xmlns="http://www.w3.org/2000/svg"
    data-v-e7c3c1f2="">
    <path
        d="M23.9893 6.46109C23.9225 5.68055 23.5586 5.02395 22.9072 4.50974C22.3834 4.09662 21.7241 3.93049 20.9998 4.02806C19.5117 4.22935 17.5982 5.58738 15.3128 8.06435C13.6858 9.82671 12.4482 11.5319 12.3972 11.6031L11.6422 12.6061L11.1517 13.2222C10.2121 14.4018 9.32518 15.5164 8.67825 16.296L8.66155 16.3162C6.75416 18.6148 5.75739 19.6326 4.85556 19.0288C4.56813 18.8363 4.43716 18.0083 5.01026 16.3083C5.46733 14.9529 6.14063 13.7241 6.14766 13.7118L6.25402 13.5184C6.34983 13.3444 6.3173 13.129 6.17579 12.9902L6.01318 12.8302C5.93934 12.7572 4.19104 11.0441 3.65574 10.4552C1.81427 8.42825 1.49345 7.23195 1.54882 6.58414C1.58046 6.21585 1.74483 5.92578 2.06654 5.67088C2.25728 5.52057 2.48582 5.46959 2.78731 5.51003C4.9162 5.79745 8.3917 9.82319 10.0495 12.0664C10.0618 12.0831 10.5443 12.6878 10.5566 12.7045L11.5226 11.4713C11.5165 11.4634 11.0436 10.8595 11.0374 10.8507C10.5637 10.2302 9.81038 9.2791 8.68704 8.06259C6.40169 5.5865 4.48814 4.22847 3.00002 4.02718C2.27662 3.92961 1.6165 4.09574 1.09351 4.50886C0.441303 5.02395 0.0774041 5.68055 0.0106014 6.46109C-0.105424 7.82439 0.731367 9.50149 2.499 11.4449C2.91388 11.9011 3.92999 12.9102 4.52945 13.5009C4.24818 14.0652 3.85967 14.9099 3.54939 15.824C2.78995 18.0672 2.9341 19.5597 3.98009 20.2594C4.42837 20.5591 4.89423 20.7094 5.37328 20.7094C5.97626 20.7094 6.60297 20.4721 7.24639 19.9983C8.11658 19.3575 8.9648 18.3353 9.86224 17.2532L9.87894 17.233C10.5435 16.4323 11.4409 15.3054 12.3902 14.1118L12.8692 13.5105L13.6463 12.4786L13.6551 12.4672C14.9762 10.6371 18.9096 5.82119 21.2125 5.50915C21.5132 5.46783 21.7426 5.51969 21.9333 5.67C22.255 5.92403 22.4203 6.21409 22.451 6.58238C22.5064 7.22932 22.1856 8.42649 20.3441 10.4517C19.8088 11.0406 18.0605 12.7537 17.9849 12.8284L17.8232 12.9867C17.6817 13.1255 17.65 13.3409 17.745 13.5149L17.8513 13.7092C17.8583 13.7215 18.5317 14.9512 18.9887 16.3057C19.5627 18.0065 19.4308 18.8345 19.1434 19.0261C18.2433 19.63 17.2457 18.6121 15.3383 16.3136L15.3216 16.2934C15.0825 16.0051 14.3916 15.1481 13.9899 14.6497C13.9732 14.6286 13.4828 13.9729 13.467 13.9535L12.5009 15.1867C12.5176 15.207 13.0099 15.8627 13.0275 15.8847C13.3562 16.2934 13.8801 16.943 14.1209 17.233L14.1376 17.2532C15.0359 18.3361 15.8842 19.3584 16.7535 19.9983C17.9005 20.843 19.0168 20.9309 20.0198 20.2594C21.0649 19.5597 21.2099 18.0672 20.4505 15.824C20.1261 14.8668 19.7086 13.9781 19.4704 13.5009C20.0699 12.9102 21.086 11.9011 21.5009 11.4449C23.2685 9.50149 24.1062 7.82439 23.9893 6.46109Z"
        fill="#E25352"></path>
</svg>