<svg width="40" height="40" viewBox="0 0 24 24" fill="none" xmlns="http://www.w3.org/2000/svg"
    data-v-e7c3c1f2="">
    <path
        d="M22.2504 13.0513V19.0948C22.2504 20.0464 21.4789 20.8179 20.5273 20.8179H2.92304C1.97141 20.8179 1.19995 20.0464 1.19995 19.0948V7.5828C1.19995 6.63116 1.97141 5.85971 2.92304 5.85971H11.7252"
        stroke="#000" stroke-linecap="round" stroke-linejoin="round"></path>
    <path d="M14.4302 15.4762H18.4501M14.4302 13.5027H16.4166" stroke="#000" stroke-width="1.14873"
        stroke-linecap="round" stroke-linejoin="round"></path>
    <path fill-rule="evenodd" clip-rule="evenodd"
        d="M6.93907 9.31793C5.99882 9.31793 5.23726 10.0795 5.23726 11.0198C5.23726 11.96 5.99882 12.7216 6.93907 12.7216C7.87933 12.7216 8.64089 11.96 8.64089 11.0198C8.64089 10.0795 7.87933 9.31793 6.93907 9.31793ZM6.93907 13.5725C5.66112 13.5725 3.10999 14.224 3.10999 15.5174V16.4899C3.10999 16.7573 3.32537 16.9761 3.58862 16.9761H10.2895C10.5528 16.9761 10.7682 16.7573 10.7682 16.4899V15.5174C10.7682 14.224 8.21703 13.5725 6.93907 13.5725Z"
        stroke="#000" stroke-width="1.14873"></path>
    <path
        d="M16.7214 3.50564C16.8666 3.34633 17.0434 3.21907 17.2405 3.13199C17.4377 3.04492 17.6508 2.99994 17.8663 2.99994C18.0819 2.99994 18.295 3.04492 18.4921 3.13199C18.6893 3.21907 18.8661 3.34633 19.0112 3.50564C19.3223 3.84739 19.7675 4.03214 20.2289 4.01012C20.4443 4.00002 20.6594 4.03501 20.8605 4.11283C21.0616 4.19066 21.2442 4.30961 21.3966 4.46208C21.5491 4.61454 21.6681 4.79716 21.7459 4.99824C21.8237 5.19933 21.8587 5.41444 21.8486 5.62983C21.8266 6.09027 22.0113 6.53636 22.3521 6.84748C23.027 7.46205 23.027 8.5227 22.3521 9.13727C22.0113 9.44839 21.8266 9.89352 21.8486 10.3549C21.8587 10.5703 21.8237 10.7854 21.7459 10.9865C21.6681 11.1876 21.5491 11.3702 21.3966 11.5227C21.2442 11.6751 21.0616 11.7941 20.8605 11.8719C20.6594 11.9497 20.4443 11.9847 20.2289 11.9746C20.0014 11.9639 19.7743 12.0034 19.5638 12.0905C19.3534 12.1775 19.1647 12.3099 19.0112 12.4782C18.8661 12.6375 18.6893 12.7647 18.4921 12.8518C18.295 12.9389 18.0819 12.9839 17.8663 12.9839C17.6508 12.9839 17.4377 12.9389 17.2405 12.8518C17.0434 12.7647 16.8666 12.6375 16.7214 12.4782C16.568 12.3099 16.3793 12.1775 16.1688 12.0905C15.9584 12.0034 15.7313 11.9639 15.5038 11.9746C15.2884 11.9847 15.0733 11.9497 14.8722 11.8719C14.6711 11.7941 14.4885 11.6751 14.336 11.5227C14.1836 11.3702 14.0646 11.1876 13.9868 10.9865C13.909 10.7854 13.874 10.5703 13.8841 10.3549C13.8947 10.1274 13.855 9.90023 13.7678 9.68976C13.6806 9.47929 13.5481 9.29064 13.3796 9.13727C13.2203 8.99212 13.093 8.81532 13.006 8.61818C12.9189 8.42104 12.8739 8.20789 12.8739 7.99238C12.8739 7.77686 12.9189 7.56371 13.006 7.36657C13.093 7.16943 13.2203 6.99263 13.3796 6.84748C13.7213 6.53636 13.9061 6.09123 13.8841 5.62983C13.874 5.41444 13.909 5.19933 13.9868 4.99824C14.0646 4.79716 14.1836 4.61454 14.336 4.46208C14.4885 4.30961 14.6711 4.19066 14.8722 4.11283C15.0733 4.03501 15.2884 4.00002 15.5038 4.01012C15.9642 4.03214 16.4103 3.84739 16.7214 3.50564Z"
        fill="#E25352"></path>
    <path d="M16.3004 7.99234L17.3438 9.03577L19.4326 6.94891" stroke="#ECEFF1" stroke-width="2"
        stroke-linecap="round" stroke-linejoin="round"></path>
</svg>