<svg width="40" height="40" viewBox="0 0 24 24" fill="none" xmlns="http://www.w3.org/2000/svg"
    data-v-e7c3c1f2="">
    <path fill-rule="evenodd" clip-rule="evenodd"
        d="M15.8 1.79999H7.80005C6.14005 1.79999 4.80005 3.13999 4.80005 4.79999V18.8C4.80005 20.46 6.14005 21.8 7.80005 21.8H15.8C17.46 21.8 18.8 20.46 18.8 18.8V4.79999C18.8 3.13999 17.46 1.79999 15.8 1.79999ZM13.3 19.8H10.3C10.02 19.8 9.80005 19.58 9.80005 19.3C9.80005 19.02 10.02 18.8 10.3 18.8H13.3C13.58 18.8 13.8 19.02 13.8 19.3C13.8 19.58 13.58 19.8 13.3 19.8ZM16.8 15.8C16.8 16.3523 16.3523 16.8 15.8 16.8H7.80005C7.24776 16.8 6.80005 16.3523 6.80005 15.8V4.79999C6.80005 4.2477 7.24776 3.79999 7.80005 3.79999H15.8C16.3523 3.79999 16.8 4.2477 16.8 4.79999V15.8Z"
        stroke="#000"></path>
    <path fill-rule="evenodd" clip-rule="evenodd"
        d="M11.8 6.59998C10.8669 6.59998 10.1111 7.35574 10.1111 8.28884C10.1111 9.22194 10.8669 9.97771 11.8 9.97771C12.7331 9.97771 13.4888 9.22194 13.4888 8.28884C13.4888 7.35574 12.7331 6.59998 11.8 6.59998ZM11.8 10.8221C10.5317 10.8221 8 11.4687 8 12.7523V13.7173C8 13.9827 8.21375 14.1999 8.47499 14.1999H15.1249C15.3862 14.1999 15.5999 13.9827 15.5999 13.7173V12.7523C15.5999 11.4687 13.0682 10.8221 11.8 10.8221Z"
        fill="#E25352"></path>
</svg>