<svg width="149" height="126" viewBox="0 0 149 126" fill="none" xmlns="http://www.w3.org/2000/svg">
<g clip-path="url(#clip0_6306_65310)">
<path d="M110.881 -3.78856C114.115 -9.50579 117.775 -12.6097 123.64 -14.6085C138.185 -19.5651 151.216 -10.2187 152.211 5.88363C152.713 14.0238 154.124 18.3148 157.273 21.2771C160.84 24.6333 163.641 25.169 175.284 24.7212C184.025 24.3841 186.754 24.6435 190.224 26.1357C197.923 29.4483 203.729 38.8884 202.883 46.7149C202.222 52.825 199.248 56.5584 190.483 62.2789C176.791 71.2157 173.216 76.5748 169.851 93.2101C166.245 111.028 159.071 123.721 148.086 131.714C133.585 142.265 113.336 145.853 98.668 140.473C91.8959 137.989 85.4589 132.202 82.7128 126.133C78.9138 117.73 79.1466 108.529 83.4136 98.4908C86.813 90.4929 90.2523 86.1991 107.237 68.7435C112.406 63.4303 113.873 61.2301 114.579 57.7259C115.731 52.0112 114.501 45.1962 110.118 33.0014C104.404 17.1032 104.607 7.30429 110.881 -3.78856Z" fill="#F2F5F6"/>
<path d="M373.093 247.052C355.205 224.376 229.366 66.1731 219.27 56.9102C206.651 45.3316 194.648 23.1382 129.569 24.8169C64.4895 26.4956 25.6555 18.0849 14.1718 13.0484C-2.9801 5.52599 -19.0442 -25.911 42.5909 -83.8535C104.226 -141.796 117.277 -120.003 152.309 -213.853" stroke="#514B75" stroke-width="2"/>
</g>
<defs>
<clipPath id="clip0_6306_65310">
<rect width="149" height="126" fill="white"/>
</clipPath>
</defs>
</svg>
