<svg width="95" height="126" viewBox="0 0 95 126" fill="none" xmlns="http://www.w3.org/2000/svg">
<g clip-path="url(#clip0_6306_65313)">
<path fill-rule="evenodd" clip-rule="evenodd" d="M27.4692 76.452C25.6253 88.9916 29.4612 102.085 37.8043 111.726C41.4279 115.914 44.1047 117.97 49.8389 120.969C61.9898 127.322 73.6504 128.138 85.7783 123.484C97.1184 119.133 104.169 112.249 109.475 100.349C112.673 93.1773 112.922 91.7681 113.498 77.627C114.018 64.8475 114.546 61.3987 116.956 54.9953C119.469 48.3203 120.663 46.4503 127.203 38.9476C140.442 23.7599 144.037 11.1666 139.25 -3.25331C131.588 -26.3306 104.114 -36.5013 83.9751 -23.7156C72.7129 -16.566 67.5108 -7.10475 65.4358 10.001C64.4278 18.3125 63.4037 22.3644 60.8967 27.9697C57.5015 35.5619 56.558 36.6907 42.4422 50.0332C34.1272 57.8937 28.821 67.2553 27.4692 76.452Z" fill="#F2F5F6"/>
<path d="M-0.573443 -3.72672C11.6482 16.5782 25.6322 31.418 43.1943 39.5293C56.4647 45.6585 71.1692 48.7209 85.2759 35.0601C90.9513 29.5642 103.587 15.3572 102.109 2.84161C100.158 -13.685 81.158 -15.9995 72.4028 -11.6591C59.4767 -5.25098 47.5813 16.2309 45.5823 37.7038C43.0268 65.1514 54.466 84.812 65.7521 98.5209C82.5686 118.948 115.357 144.802 138.566 114.561" stroke="#153D6D" stroke-width="2" stroke-linecap="round"/>
</g>
<defs>
<clipPath id="clip0_6306_65313">
<rect width="95" height="126" fill="white"/>
</clipPath>
</defs>
</svg>
