<svg width="40" height="40" viewBox="0 0 24 24" fill="none" xmlns="http://www.w3.org/2000/svg"
    data-v-e7c3c1f2="">
    <path
        d="M12.2001 12.525C13.567 12.525 14.6751 11.4169 14.6751 10.05C14.6751 8.6831 13.567 7.57501 12.2001 7.57501C10.8332 7.57501 9.72509 8.6831 9.72509 10.05C9.72509 11.4169 10.8332 12.525 12.2001 12.525Z"
        stroke="#000"></path>
    <path fill-rule="evenodd" clip-rule="evenodd"
        d="M16.3251 3.44999L18.8001 3.45004C19.7076 3.45004 20.4501 4.21775 20.4501 5.10004V15.0459C20.4501 15.1971 20.4283 15.3436 20.3876 15.4826C20.3714 15.507 20.3511 15.5349 20.3255 15.5663C20.1929 15.7293 19.9626 15.9325 19.608 16.1539C19.522 16.2075 19.4306 16.2611 19.3339 16.3144C19.3358 15.8707 19.1805 15.4263 18.878 15.0733C18.1882 14.2684 17.0103 14.2398 16.253 14.8887L14.2153 16.65H5.71282C5.24081 16.4387 4.82693 16.1945 4.50971 15.9489C4.27504 15.7672 4.11805 15.6038 4.02708 15.4757C4.01653 15.4609 4.00737 15.4472 3.99942 15.4348C3.9672 15.3101 3.95007 15.1799 3.95007 15.0459V5.10004C3.95007 4.21775 4.69258 3.45004 5.60008 3.45004L8.07509 3.44999L8.90009 2.62499C9.72509 1.79999 10.0881 1.79999 10.5501 1.79999H13.8501C14.3121 1.79999 14.6751 1.79999 15.5001 2.62499L16.3251 3.44999ZM8.07509 10.05C8.07509 12.327 9.92309 14.175 12.2001 14.175C14.4771 14.175 16.3251 12.327 16.3251 10.05C16.3251 7.77301 14.4771 5.925 12.2001 5.925C9.92309 5.925 8.07509 7.77301 8.07509 10.05Z"
        stroke="#000"></path>
    <path
        d="M3.03329 12.6C1.86762 13.4304 1.19995 14.4443 1.19995 15.5622C1.19995 17.2916 2.73078 18.7942 5.50928 19.7581C5.99121 19.9281 6.5299 19.673 6.7 19.1911C6.7141 19.1628 6.72117 19.1275 6.72824 19.0921C6.73536 19.0566 6.74248 19.021 6.75676 18.9926C6.81351 18.5674 6.55821 18.142 6.13305 18.0002C4.44039 17.4356 3.03329 16.3843 3.03329 15.5622C3.03329 15.4332 3.03329 15.3874 3.03329 15.1622V12.6Z"
        fill="#E25352"></path>
    <path
        d="M3.03329 12.6C1.86762 13.4304 1.19995 14.4443 1.19995 15.5622C1.19995 17.2916 2.73078 18.7942 5.50928 19.7581C5.99121 19.9281 6.5299 19.673 6.7 19.1911C6.7141 19.1628 6.72117 19.1275 6.72824 19.0921C6.73536 19.0566 6.74248 19.021 6.75676 18.9926C6.81351 18.5674 6.55821 18.142 6.13305 18.0002C4.44039 17.4356 3.03329 16.3843 3.03329 15.5622C3.03329 15.4332 3.03329 15.3874 3.03329 15.1622V12.6Z"
        fill="#E25352"></path>
    <path
        d="M21.4168 15.1653V12.6C22.5824 13.4304 23.2501 14.4443 23.2501 15.5622C23.2501 17.6885 20.897 19.4179 17.0981 20.2682L18.7707 20.9202C19.2526 21.1186 19.508 21.6573 19.3094 22.1392C19.1677 22.5078 18.7992 22.7347 18.4306 22.7347C18.3173 22.7347 18.2038 22.7347 18.0904 22.6779L13.2142 20.7784C12.9023 20.6651 12.6755 20.3815 12.6187 20.0697C12.5902 19.9281 12.5902 19.7863 12.647 19.6445C12.7037 19.4744 12.7888 19.3326 12.9306 19.2193L16.8995 15.7888C17.2964 15.4486 17.8919 15.4769 18.232 15.8738C18.5721 16.2707 18.5439 16.8662 18.147 17.2063L16.7011 18.4538C19.5929 17.7733 21.4168 16.5826 21.4168 15.562C21.4168 15.4339 21.4168 15.3874 21.4168 15.1653Z"
        fill="#E25352"></path>
    <path
        d="M21.4168 15.1653V12.6C22.5824 13.4304 23.2501 14.4443 23.2501 15.5622C23.2501 17.6885 20.897 19.4179 17.0981 20.2682L18.7707 20.9202C19.2526 21.1186 19.508 21.6573 19.3094 22.1392C19.1677 22.5078 18.7992 22.7347 18.4306 22.7347C18.3173 22.7347 18.2038 22.7347 18.0904 22.6779L13.2142 20.7784C12.9023 20.6651 12.6755 20.3815 12.6187 20.0697C12.5902 19.9281 12.5902 19.7863 12.647 19.6445C12.7037 19.4744 12.7888 19.3326 12.9306 19.2193L16.8995 15.7888C17.2964 15.4486 17.8919 15.4769 18.232 15.8738C18.5721 16.2707 18.5439 16.8662 18.147 17.2063L16.7011 18.4538C19.5929 17.7733 21.4168 16.5826 21.4168 15.562C21.4168 15.4339 21.4168 15.3874 21.4168 15.1653Z"
        fill="#E25352"></path>
</svg>