<svg width="92" height="126" viewBox="0 0 92 126" fill="none" xmlns="http://www.w3.org/2000/svg">
<g clip-path="url(#clip0_6306_65311)">
<path d="M66.3561 128.791C68.7483 133.709 76.7304 156.588 80.4224 167.412L124.667 5.19569L66.791 -8.00956C66.7642 19.9174 47.2294 41.3589 22.6259 49.9201C-1.97758 58.4813 0.370837 71.9337 5.15255 77.5203C8.35406 81.2607 19.9333 91.0042 40.7156 102.017C61.4979 113.03 63.3657 122.644 66.3561 128.791Z" fill="#F2F5F6"/>
<path d="M13.4149 -57.7476C23.4682 -58.0505 27.4013 -57.5832 37.6375 -54.8651C49.3707 -51.7492 56.4696 -50.1847 63.3718 -50.2812C70.2784 -50.3778 76.9505 -52.1369 87.8302 -55.5692L87.6571 -56.1775L87.8302 -55.5692C95.4804 -57.9827 102.947 -59.4283 109.486 -59.8615C116.038 -60.2954 121.608 -59.7096 125.494 -58.107L125.714 -58.6984L125.494 -58.107C130.798 -55.92 134.658 -52.6598 137 -48.5734C139.341 -44.4893 140.197 -39.5248 139.403 -33.8649L140 -33.7722L139.403 -33.8649C138.576 -27.9612 137.046 -24.3471 126.668 -4.2009L127.198 -3.89806L126.668 -4.2009C121.062 6.68263 117.525 19.2803 114.261 39.8358C112.149 53.1419 109.697 62.6997 106.52 69.41C103.354 76.0976 99.4866 79.9219 94.5349 81.8306C89.7106 83.69 85.4307 83.3665 81.1928 80.612C76.9085 77.8271 72.6259 72.5313 67.9209 64.3295C56.4863 44.3965 45.5361 32.7485 23.9672 17.5393L23.6316 18.067L23.9672 17.5393C10.7809 8.24198 0.742205 -0.64382 -6.10039 -9.02647C-12.9472 -17.4144 -16.5533 -25.2482 -16.9708 -32.4496C-17.4855 -41.3303 -11.1573 -51.181 -1.76638 -55.8036C-0.770926 -56.2936 1.02635 -56.7266 3.61593 -57.0631C6.18569 -57.397 9.47591 -57.6291 13.4149 -57.7476Z" stroke="#E25352" stroke-width="2"/>
</g>
<defs>
<clipPath id="clip0_6306_65311">
<rect width="92" height="126" fill="white"/>
</clipPath>
</defs>
</svg>
